<svg xmlns="http://www.w3.org/2000/svg" xmlns:xlink="http://www.w3.org/1999/xlink" width="1080" zoomAndPan="magnify" viewBox="0 0 810 809.999993" height="1080" preserveAspectRatio="xMidYMid meet" version="1.0"><defs><clipPath id="c6a54ceb01"><path d="M 41.066406 19.328125 L 768.566406 19.328125 L 768.566406 790.328125 L 41.066406 790.328125 Z M 41.066406 19.328125 " clip-rule="nonzero"/></clipPath></defs><g clip-path="url(#c6a54ceb01)"><path fill="#6d28d9" d="M 707.363281 759.8125 C 707.363281 776.9375 721.09375 790.667969 738.214844 790.667969 C 755.183594 790.667969 768.914062 776.9375 768.914062 759.8125 L 768.914062 383.246094 C 768.914062 283.125 728.1875 192.105469 662.160156 126.082031 C 596.289062 60.207031 505.269531 19.328125 404.996094 19.328125 C 304.722656 19.328125 213.703125 60.207031 147.832031 126.082031 C 81.804688 191.953125 41.078125 282.972656 41.078125 383.246094 L 41.078125 453.746094 C 41.078125 470.714844 54.808594 484.597656 71.933594 484.597656 C 88.902344 484.597656 102.632812 470.714844 102.632812 453.746094 L 102.632812 383.246094 C 102.632812 299.941406 136.726562 224.503906 191.335938 169.585938 C 246.101562 114.972656 321.691406 81.035156 404.996094 81.035156 C 488.457031 81.035156 563.894531 114.972656 618.8125 169.585938 C 673.421875 224.503906 707.363281 299.941406 707.363281 383.246094 Z M 330.175781 540.597656 C 330.175781 523.628906 316.449219 509.898438 299.324219 509.898438 C 282.355469 509.898438 268.625 523.628906 268.625 540.597656 L 268.625 619.273438 C 268.625 636.398438 282.355469 650.128906 299.324219 650.128906 C 316.449219 650.128906 330.175781 636.398438 330.175781 619.273438 Z M 216.480469 587.957031 C 216.480469 570.988281 202.75 557.257812 185.78125 557.257812 C 168.660156 557.257812 154.929688 570.988281 154.929688 587.957031 L 154.929688 705.203125 C 154.929688 722.328125 168.660156 736.054688 185.78125 736.054688 C 202.75 736.054688 216.480469 722.328125 216.480469 705.203125 Z M 102.632812 540.597656 C 102.632812 523.628906 88.902344 509.898438 71.933594 509.898438 C 54.808594 509.898438 41.078125 523.628906 41.078125 540.597656 L 41.078125 759.8125 C 41.078125 776.9375 54.808594 790.667969 71.933594 790.667969 C 88.902344 790.667969 102.632812 776.9375 102.632812 759.8125 Z M 478.890625 705.355469 C 478.890625 714.148438 482.441406 722.171875 488.300781 727.878906 C 494.011719 733.585938 501.878906 736.980469 510.671875 736.980469 C 519.464844 736.980469 527.484375 733.433594 533.039062 727.878906 C 538.902344 722.019531 542.449219 714.148438 542.449219 705.355469 C 542.449219 696.71875 538.902344 688.851562 533.039062 682.988281 C 527.332031 677.28125 519.464844 673.578125 510.671875 673.578125 C 501.878906 673.578125 493.855469 677.28125 488.300781 682.988281 C 482.441406 688.695312 478.890625 696.71875 478.890625 705.355469 Z M 267.542969 705.355469 C 267.542969 714.148438 271.09375 722.171875 276.953125 727.878906 C 282.816406 733.585938 290.683594 736.980469 299.324219 736.980469 C 308.117188 736.980469 316.140625 733.433594 321.847656 727.878906 C 327.554688 722.019531 330.949219 714.148438 330.949219 705.355469 C 330.949219 696.71875 327.402344 688.851562 321.847656 682.988281 C 315.984375 677.28125 308.117188 673.578125 299.324219 673.578125 C 290.683594 673.578125 282.816406 677.28125 276.953125 682.988281 C 271.09375 688.695312 267.542969 696.71875 267.542969 705.355469 Z M 479.972656 619.273438 C 479.972656 636.398438 493.703125 650.128906 510.671875 650.128906 C 527.792969 650.128906 541.523438 636.398438 541.523438 619.273438 L 541.523438 540.597656 C 541.523438 523.628906 527.792969 509.898438 510.671875 509.898438 C 493.703125 509.898438 479.972656 523.628906 479.972656 540.597656 Z M 479.972656 453.746094 C 479.972656 470.714844 493.703125 484.597656 510.671875 484.597656 C 527.792969 484.597656 541.523438 470.714844 541.523438 453.746094 L 541.523438 383.246094 C 541.523438 345.914062 526.25 311.664062 501.414062 286.980469 C 476.730469 262.300781 442.484375 246.871094 404.996094 246.871094 C 367.511719 246.871094 333.417969 262.144531 308.734375 286.980469 C 284.050781 311.820312 268.625 345.914062 268.625 383.246094 L 268.625 453.746094 C 268.625 470.714844 282.355469 484.597656 299.324219 484.597656 C 316.449219 484.597656 330.175781 470.714844 330.175781 453.746094 L 330.175781 383.246094 C 330.175781 362.726562 338.660156 344.0625 352.238281 330.484375 C 365.8125 316.910156 384.480469 308.425781 404.996094 308.425781 C 425.667969 308.425781 444.335938 316.910156 457.910156 330.484375 C 471.488281 344.0625 479.972656 362.726562 479.972656 383.246094 Z M 593.511719 705.355469 C 593.511719 722.480469 607.398438 736.210938 624.367188 736.210938 C 641.335938 736.210938 655.21875 722.480469 655.21875 705.355469 L 655.21875 588.113281 C 655.21875 571.144531 641.335938 557.414062 624.367188 557.414062 C 607.398438 557.414062 593.511719 571.144531 593.511719 588.113281 Z M 593.511719 501.261719 C 593.511719 518.230469 607.398438 531.960938 624.367188 531.960938 C 641.335938 531.960938 655.21875 518.230469 655.21875 501.261719 L 655.21875 383.246094 C 655.21875 314.441406 626.988281 251.808594 581.789062 206.453125 C 536.433594 161.097656 473.800781 133.023438 404.84375 133.023438 C 335.886719 133.023438 273.40625 161.097656 228.050781 206.453125 C 182.695312 251.808594 154.621094 314.441406 154.621094 383.246094 L 154.621094 501.261719 C 154.621094 518.230469 168.351562 531.960938 185.472656 531.960938 C 202.445312 531.960938 216.171875 518.230469 216.171875 501.261719 L 216.171875 383.246094 C 216.171875 331.410156 237.308594 284.359375 271.554688 250.113281 C 305.804688 215.863281 352.855469 194.730469 404.6875 194.730469 C 456.675781 194.730469 503.882812 215.863281 537.976562 250.113281 C 572.070312 284.359375 593.203125 331.410156 593.203125 383.246094 L 593.203125 501.261719 Z M 593.511719 501.261719 " fill-opacity="1" fill-rule="nonzero"/><path fill="#6d28d9" d="M 707.363281 759.8125 C 707.363281 776.9375 721.09375 790.667969 738.214844 790.667969 C 755.183594 790.667969 768.914062 776.9375 768.914062 759.8125 L 768.914062 383.246094 C 768.914062 283.125 728.1875 192.105469 662.160156 126.082031 C 596.289062 60.207031 505.269531 19.328125 404.996094 19.328125 C 304.722656 19.328125 213.703125 60.207031 147.832031 126.082031 C 81.804688 191.953125 41.078125 282.972656 41.078125 383.246094 L 41.078125 453.746094 C 41.078125 470.714844 54.808594 484.597656 71.933594 484.597656 C 88.902344 484.597656 102.632812 470.714844 102.632812 453.746094 L 102.632812 383.246094 C 102.632812 299.941406 136.726562 224.503906 191.335938 169.585938 C 246.101562 114.972656 321.691406 81.035156 404.996094 81.035156 C 488.457031 81.035156 563.894531 114.972656 618.8125 169.585938 C 673.421875 224.503906 707.363281 299.941406 707.363281 383.246094 Z M 330.175781 540.597656 C 330.175781 523.628906 316.449219 509.898438 299.324219 509.898438 C 282.355469 509.898438 268.625 523.628906 268.625 540.597656 L 268.625 619.273438 C 268.625 636.398438 282.355469 650.128906 299.324219 650.128906 C 316.449219 650.128906 330.175781 636.398438 330.175781 619.273438 Z M 216.480469 587.957031 C 216.480469 570.988281 202.75 557.257812 185.78125 557.257812 C 168.660156 557.257812 154.929688 570.988281 154.929688 587.957031 L 154.929688 705.203125 C 154.929688 722.328125 168.660156 736.054688 185.78125 736.054688 C 202.75 736.054688 216.480469 722.328125 216.480469 705.203125 Z M 102.632812 540.597656 C 102.632812 523.628906 88.902344 509.898438 71.933594 509.898438 C 54.808594 509.898438 41.078125 523.628906 41.078125 540.597656 L 41.078125 759.8125 C 41.078125 776.9375 54.808594 790.667969 71.933594 790.667969 C 88.902344 790.667969 102.632812 776.9375 102.632812 759.8125 Z M 478.890625 705.355469 C 478.890625 714.148438 482.441406 722.171875 488.300781 727.878906 C 494.011719 733.585938 501.878906 736.980469 510.671875 736.980469 C 519.464844 736.980469 527.484375 733.433594 533.039062 727.878906 C 538.902344 722.019531 542.449219 714.148438 542.449219 705.355469 C 542.449219 696.71875 538.902344 688.851562 533.039062 682.988281 C 527.332031 677.28125 519.464844 673.578125 510.671875 673.578125 C 501.878906 673.578125 493.855469 677.28125 488.300781 682.988281 C 482.441406 688.695312 478.890625 696.71875 478.890625 705.355469 Z M 267.542969 705.355469 C 267.542969 714.148438 271.09375 722.171875 276.953125 727.878906 C 282.816406 733.585938 290.683594 736.980469 299.324219 736.980469 C 308.117188 736.980469 316.140625 733.433594 321.847656 727.878906 C 327.554688 722.019531 330.949219 714.148438 330.949219 705.355469 C 330.949219 696.71875 327.402344 688.851562 321.847656 682.988281 C 315.984375 677.28125 308.117188 673.578125 299.324219 673.578125 C 290.683594 673.578125 282.816406 677.28125 276.953125 682.988281 C 271.09375 688.695312 267.542969 696.71875 267.542969 705.355469 Z M 479.972656 619.273438 C 479.972656 636.398438 493.703125 650.128906 510.671875 650.128906 C 527.792969 650.128906 541.523438 636.398438 541.523438 619.273438 L 541.523438 540.597656 C 541.523438 523.628906 527.792969 509.898438 510.671875 509.898438 C 493.703125 509.898438 479.972656 523.628906 479.972656 540.597656 Z M 479.972656 453.746094 C 479.972656 470.714844 493.703125 484.597656 510.671875 484.597656 C 527.792969 484.597656 541.523438 470.714844 541.523438 453.746094 L 541.523438 383.246094 C 541.523438 345.914062 526.25 311.664062 501.414062 286.980469 C 476.730469 262.300781 442.484375 246.871094 404.996094 246.871094 C 367.511719 246.871094 333.417969 262.144531 308.734375 286.980469 C 284.050781 311.820312 268.625 345.914062 268.625 383.246094 L 268.625 453.746094 C 268.625 470.714844 282.355469 484.597656 299.324219 484.597656 C 316.449219 484.597656 330.175781 470.714844 330.175781 453.746094 L 330.175781 383.246094 C 330.175781 362.726562 338.660156 344.0625 352.238281 330.484375 C 365.8125 316.910156 384.480469 308.425781 404.996094 308.425781 C 425.667969 308.425781 444.335938 316.910156 457.910156 330.484375 C 471.488281 344.0625 479.972656 362.726562 479.972656 383.246094 Z M 593.511719 705.355469 C 593.511719 722.480469 607.398438 736.210938 624.367188 736.210938 C 641.335938 736.210938 655.21875 722.480469 655.21875 705.355469 L 655.21875 588.113281 C 655.21875 571.144531 641.335938 557.414062 624.367188 557.414062 C 607.398438 557.414062 593.511719 571.144531 593.511719 588.113281 Z M 593.511719 501.261719 C 593.511719 518.230469 607.398438 531.960938 624.367188 531.960938 C 641.335938 531.960938 655.21875 518.230469 655.21875 501.261719 L 655.21875 383.246094 C 655.21875 314.441406 626.988281 251.808594 581.789062 206.453125 C 536.433594 161.097656 473.800781 133.023438 404.84375 133.023438 C 335.886719 133.023438 273.40625 161.097656 228.050781 206.453125 C 182.695312 251.808594 154.621094 314.441406 154.621094 383.246094 L 154.621094 501.261719 C 154.621094 518.230469 168.351562 531.960938 185.472656 531.960938 C 202.445312 531.960938 216.171875 518.230469 216.171875 501.261719 L 216.171875 383.246094 C 216.171875 331.410156 237.308594 284.359375 271.554688 250.113281 C 305.804688 215.863281 352.855469 194.730469 404.6875 194.730469 C 456.675781 194.730469 503.882812 215.863281 537.976562 250.113281 C 572.070312 284.359375 593.203125 331.410156 593.203125 383.246094 L 593.203125 501.261719 Z M 593.511719 501.261719 " fill-opacity="1" fill-rule="nonzero"/></g></svg>